<svg id="visual" viewBox="0 0 900 600" width="900" height="600" xmlns="http://www.w3.org/2000/svg" xmlns:xlink="http://www.w3.org/1999/xlink" version="1.1"><rect x="0" y="0" width="900" height="600" fill="#111"></rect><path d="M0 464L25 461.2C50 458.3 100 452.7 150 456.3C200 460 250 473 300 477.5C350 482 400 478 450 478.3C500 478.7 550 483.3 600 484.5C650 485.7 700 483.3 750 481.3C800 479.3 850 477.7 875 476.8L900 476L900 0L875 0C850 0 800 0 750 0C700 0 650 0 600 0C550 0 500 0 450 0C400 0 350 0 300 0C250 0 200 0 150 0C100 0 50 0 25 0L0 0Z" fill="#111111"></path><path d="M0 407L25 406.2C50 405.3 100 403.7 150 402.8C200 402 250 402 300 397.3C350 392.7 400 383.3 450 378.5C500 373.7 550 373.3 600 382.8C650 392.3 700 411.7 750 418C800 424.3 850 417.7 875 414.3L900 411L900 0L875 0C850 0 800 0 750 0C700 0 650 0 600 0C550 0 500 0 450 0C400 0 350 0 300 0C250 0 200 0 150 0C100 0 50 0 25 0L0 0Z" fill="#181818"></path><path d="M0 337L25 337C50 337 100 337 150 343.7C200 350.3 250 363.7 300 369.7C350 375.7 400 374.3 450 368.3C500 362.3 550 351.7 600 350.7C650 349.7 700 358.3 750 355.7C800 353 850 339 875 332L900 325L900 0L875 0C850 0 800 0 750 0C700 0 650 0 600 0C550 0 500 0 450 0C400 0 350 0 300 0C250 0 200 0 150 0C100 0 50 0 25 0L0 0Z" fill="#1e1e1e"></path><path d="M0 308L25 305.2C50 302.3 100 296.7 150 290.3C200 284 250 277 300 276.3C350 275.7 400 281.3 450 289C500 296.7 550 306.3 600 306C650 305.7 700 295.3 750 290.3C800 285.3 850 285.7 875 285.8L900 286L900 0L875 0C850 0 800 0 750 0C700 0 650 0 600 0C550 0 500 0 450 0C400 0 350 0 300 0C250 0 200 0 150 0C100 0 50 0 25 0L0 0Z" fill="#242424"></path><path d="M0 250L25 247C50 244 100 238 150 234.3C200 230.7 250 229.3 300 234.7C350 240 400 252 450 258.3C500 264.7 550 265.3 600 262.7C650 260 700 254 750 252.7C800 251.3 850 254.7 875 256.3L900 258L900 0L875 0C850 0 800 0 750 0C700 0 650 0 600 0C550 0 500 0 450 0C400 0 350 0 300 0C250 0 200 0 150 0C100 0 50 0 25 0L0 0Z" fill="#2a2a2a"></path><path d="M0 215L25 211.5C50 208 100 201 150 201.3C200 201.7 250 209.3 300 214.3C350 219.3 400 221.7 450 224C500 226.3 550 228.7 600 229.2C650 229.7 700 228.3 750 226.8C800 225.3 850 223.7 875 222.8L900 222L900 0L875 0C850 0 800 0 750 0C700 0 650 0 600 0C550 0 500 0 450 0C400 0 350 0 300 0C250 0 200 0 150 0C100 0 50 0 25 0L0 0Z" fill="#303030"></path><path d="M0 163L25 163.8C50 164.7 100 166.3 150 162.7C200 159 250 150 300 146.5C350 143 400 145 450 145.3C500 145.7 550 144.3 600 148.2C650 152 700 161 750 161.3C800 161.7 850 153.3 875 149.2L900 145L900 0L875 0C850 0 800 0 750 0C700 0 650 0 600 0C550 0 500 0 450 0C400 0 350 0 300 0C250 0 200 0 150 0C100 0 50 0 25 0L0 0Z" fill="#373737"></path><path d="M0 87L25 89.3C50 91.7 100 96.3 150 101.2C200 106 250 111 300 110.8C350 110.7 400 105.3 450 101.3C500 97.3 550 94.7 600 99C650 103.3 700 114.7 750 115.3C800 116 850 106 875 101L900 96L900 0L875 0C850 0 800 0 750 0C700 0 650 0 600 0C550 0 500 0 450 0C400 0 350 0 300 0C250 0 200 0 150 0C100 0 50 0 25 0L0 0Z" fill="#3d3d3d"></path><path d="M0 60L25 60C50 60 100 60 150 62.3C200 64.7 250 69.3 300 66.3C350 63.3 400 52.7 450 47.3C500 42 550 42 600 45.2C650 48.3 700 54.7 750 55.3C800 56 850 51 875 48.5L900 46L900 0L875 0C850 0 800 0 750 0C700 0 650 0 600 0C550 0 500 0 450 0C400 0 350 0 300 0C250 0 200 0 150 0C100 0 50 0 25 0L0 0Z" fill="#444444"></path></svg>